<svg width="22" height="22" viewBox="0 0 22 22" fill="none" xmlns="http://www.w3.org/2000/svg">
<path d="M8.23942 4.49463C7.30331 3.5615 6.3939 2.67841 5.45888 1.74731C5.05262 1.34275 4.3935 1.35858 4.03015 1.80207C3.2659 2.7349 2.01686 4.37119 1.10985 6.11587C-0.286736 8.80229 12.0271 22.2186 15.6763 20.9105C18.1596 20.0202 19.7285 18.5747 20.4775 17.742C20.8002 17.3831 20.7485 16.851 20.4021 16.5149L17.6137 13.8088C17.2221 13.4287 16.598 13.4328 16.2114 13.818L14.2672 15.7553C14.0028 16.0188 13.6117 16.1139 13.258 15.9944C9.33693 14.6697 7.48627 13.1605 6.0661 8.92033C5.95073 8.57585 6.04119 8.19572 6.2925 7.93338L8.25307 5.8868C8.62779 5.49564 8.62306 4.87705 8.23942 4.49463Z" fill="#7D8597" stroke="#7D8597"/>
</svg>