<svg width="29" height="29" viewBox="0 0 29 29" fill="none" xmlns="http://www.w3.org/2000/svg">
<path d="M20.6941 16.7901C22.0158 16.7879 23.2833 16.7693 24.6029 16.7666C25.1762 16.7654 25.6311 16.2881 25.5744 15.7176C25.4552 14.5176 25.1814 12.4773 24.589 10.6023C23.677 7.71518 5.48299 6.9356 3.82767 10.441C2.70118 12.8264 2.61394 14.9579 2.67317 16.0764C2.69869 16.5583 3.11151 16.898 3.59411 16.8908L7.47936 16.8326C8.02504 16.8244 8.4634 16.3802 8.46438 15.8345L8.4693 13.0898C8.46996 12.7166 8.67925 12.3727 9.01378 12.2072C12.7231 10.3712 15.0989 10.1298 19.1014 12.1238C19.4266 12.2858 19.6314 12.6186 19.6392 12.9818L19.7 15.8153C19.7116 16.3569 20.1524 16.7909 20.6941 16.7901Z" fill="#FF4E43" stroke="#FF4E43"/>
</svg>
