<svg width="34" height="38" viewBox="0 0 34 38" fill="none" xmlns="http://www.w3.org/2000/svg">
<mask id="path-1-inside-1_90_19" fill="white">
<path fill-rule="evenodd" clip-rule="evenodd" d="M19.8334 8.7806C19.8334 8.9444 19.8195 9.10495 19.7928 9.26115C20.5757 9.53485 21.3376 9.92373 22.0649 10.4233C23.6116 11.4857 24.961 13.0207 26.0099 14.9106C27.0587 16.8005 27.7792 18.9954 28.1161 21.3271C28.2202 22.0472 28.2868 22.7745 28.3161 23.5035C30.1056 24.5313 31.1666 25.8106 31.1666 27.1973C31.1666 30.5877 24.824 33.3362 16.9999 33.3362C9.17588 33.3362 2.83325 30.5877 2.83325 27.1973C2.83325 25.8105 3.8944 24.5311 5.68405 23.5033C5.71653 22.6956 5.7948 21.8904 5.91893 21.0949C6.28164 18.7704 7.02631 16.5909 8.09595 14.7232C9.16559 12.8554 10.5318 11.3489 12.0901 10.319C12.7707 9.86911 13.4801 9.51539 14.2073 9.26115C14.1806 9.10495 14.1667 8.9444 14.1667 8.7806C14.1667 7.21579 15.4353 5.94727 17.0001 5.94727C18.5649 5.94727 19.8334 7.21579 19.8334 8.7806Z"/>
</mask>
<path d="M19.7928 9.26115L18.8071 9.09275L18.6647 9.92611L19.4628 10.2051L19.7928 9.26115ZM22.0649 10.4233L21.4987 11.2476H21.4987L22.0649 10.4233ZM26.0099 14.9106L26.8843 14.4254L26.0099 14.9106ZM28.1161 21.3271L29.1059 21.1841V21.1841L28.1161 21.3271ZM28.3161 23.5035L27.3169 23.5437L27.3391 24.0955L27.8181 24.3706L28.3161 23.5035ZM5.68405 23.5033L6.18207 24.3705L6.66104 24.0954L6.68324 23.5435L5.68405 23.5033ZM5.91893 21.0949L6.90698 21.249L5.91893 21.0949ZM8.09595 14.7232L7.22818 14.2262L8.09595 14.7232ZM12.0901 10.319L11.5387 9.4847V9.4847L12.0901 10.319ZM14.2073 9.26115L14.5374 10.2051L15.3354 9.92611L15.1931 9.09274L14.2073 9.26115ZM20.7786 9.42955C20.8147 9.21796 20.8334 9.00108 20.8334 8.7806H18.8334C18.8334 8.88772 18.8243 8.99195 18.8071 9.09275L20.7786 9.42955ZM22.6311 9.59905C21.8346 9.05196 20.9938 8.62166 20.1229 8.31717L19.4628 10.2051C20.1576 10.448 20.8406 10.7955 21.4987 11.2476L22.6311 9.59905ZM26.8843 14.4254C25.7717 12.4207 24.3235 10.7615 22.6311 9.59905L21.4987 11.2476C22.8998 12.21 24.1503 13.6207 25.1355 15.3958L26.8843 14.4254ZM29.1059 21.1841C28.7531 18.7431 27.9971 16.4306 26.8843 14.4254L25.1355 15.3958C26.1204 17.1705 26.8053 19.2477 27.1264 21.4701L29.1059 21.1841ZM29.3153 23.4633C29.2846 22.7003 29.2149 21.9387 29.1059 21.1841L27.1264 21.4701C27.2255 22.1558 27.289 22.8487 27.3169 23.5437L29.3153 23.4633ZM27.8181 24.3706C29.5089 25.3418 30.1666 26.3596 30.1666 27.1973H32.1666C32.1666 25.2616 30.7022 23.7208 28.8142 22.6363L27.8181 24.3706ZM30.1666 27.1973C30.1666 27.7106 29.9307 28.2807 29.3377 28.8883C28.7402 29.5005 27.8267 30.0975 26.6197 30.6206C24.2088 31.6653 20.8085 32.3362 16.9999 32.3362V34.3362C21.0154 34.3362 24.6984 33.6328 27.4149 32.4557C28.7715 31.8678 29.9327 31.142 30.7689 30.2853C31.6096 29.424 32.1666 28.3791 32.1666 27.1973H30.1666ZM16.9999 32.3362C13.1914 32.3362 9.791 31.6653 7.38018 30.6206C6.17315 30.0975 5.25966 29.5005 4.66216 28.8883C4.06912 28.2807 3.83325 27.7106 3.83325 27.1973H1.83325C1.83325 28.3791 2.39021 29.424 3.23092 30.2853C4.06716 31.142 5.22833 31.8678 6.58496 32.4557C9.30147 33.6328 12.9844 34.3362 16.9999 34.3362V32.3362ZM3.83325 27.1973C3.83325 26.3595 4.49103 25.3417 6.18207 24.3705L5.18602 22.6361C3.29778 23.7206 1.83325 25.2614 1.83325 27.1973H3.83325ZM4.93089 20.9407C4.80079 21.7744 4.71886 22.6178 4.68485 23.4631L6.68324 23.5435C6.71421 22.7735 6.78881 22.0063 6.90698 21.249L4.93089 20.9407ZM7.22818 14.2262C6.09245 16.2094 5.31067 18.5068 4.93089 20.9407L6.90698 21.249C7.25261 19.034 7.96017 16.9725 8.96372 15.2201L7.22818 14.2262ZM11.5387 9.4847C9.83154 10.6131 8.36362 12.2435 7.22818 14.2262L8.96372 15.2201C9.96756 13.4673 11.2321 12.0847 12.6415 11.1532L11.5387 9.4847ZM13.8773 8.31717C13.0683 8.6 12.285 8.9915 11.5387 9.4847L12.6415 11.1532C13.2565 10.7467 13.8919 10.4308 14.5374 10.2051L13.8773 8.31717ZM13.1667 8.7806C13.1667 9.00107 13.1855 9.21796 13.2216 9.42955L15.1931 9.09274C15.1758 8.99195 15.1667 8.88773 15.1667 8.7806H13.1667ZM17.0001 4.94727C14.883 4.94727 13.1667 6.66351 13.1667 8.7806H15.1667C15.1667 7.76808 15.9876 6.94727 17.0001 6.94727V4.94727ZM20.8334 8.7806C20.8334 6.66351 19.1172 4.94727 17.0001 4.94727V6.94727C18.0126 6.94727 18.8334 7.76808 18.8334 8.7806H20.8334Z" fill="#7D8597" mask="url(#path-1-inside-1_90_19)"/>
<mask id="path-3-inside-2_90_19" fill="white">
<path fill-rule="evenodd" clip-rule="evenodd" d="M12.7518 34.2807C12.7506 34.3116 12.75 34.3427 12.75 34.3738C12.75 36.1342 14.6528 37.5613 17 37.5613C19.3472 37.5613 21.25 36.1342 21.25 34.3738C21.25 34.3427 21.2494 34.3116 21.2482 34.2806C19.872 34.3418 18.4517 34.3738 16.9996 34.3738C15.5477 34.3738 14.1277 34.3418 12.7518 34.2807Z"/>
</mask>
<path d="M12.7518 34.2807L12.7962 33.2817L11.791 33.237L11.7525 34.2425L12.7518 34.2807ZM21.2482 34.2806L22.2475 34.2424L22.209 33.237L21.2038 33.2816L21.2482 34.2806ZM13.75 34.3738C13.75 34.3554 13.7504 34.3371 13.751 34.3189L11.7525 34.2425C11.7508 34.2861 11.75 34.3299 11.75 34.3738H13.75ZM17 36.5613C16.0218 36.5613 15.1748 36.2627 14.5948 35.8277C14.0151 35.393 13.75 34.8687 13.75 34.3738H11.75C11.75 35.6393 12.4363 36.7088 13.3948 37.4277C14.353 38.1464 15.6309 38.5613 17 38.5613V36.5613ZM20.25 34.3738C20.25 34.8687 19.9849 35.393 19.4052 35.8277C18.8252 36.2627 17.9782 36.5613 17 36.5613V38.5613C18.3691 38.5613 19.647 38.1464 20.6052 37.4277C21.5637 36.7088 22.25 35.6393 22.25 34.3738H20.25ZM20.2489 34.3189C20.2496 34.3371 20.25 34.3554 20.25 34.3738H22.25C22.25 34.3299 22.2492 34.2861 22.2475 34.2424L20.2489 34.3189ZM21.2038 33.2816C19.8426 33.3421 18.4371 33.3738 16.9996 33.3738V35.3738C18.4664 35.3738 19.9014 35.3415 21.2926 35.2797L21.2038 33.2816ZM16.9996 33.3738C15.5624 33.3738 14.1572 33.3421 12.7962 33.2817L12.7074 35.2797C14.0983 35.3415 15.5331 35.3738 16.9996 35.3738V33.3738Z" fill="#7D8597" mask="url(#path-3-inside-2_90_19)"/>
</svg>
