<svg width="32" height="31" viewBox="0 0 32 31" fill="none" xmlns="http://www.w3.org/2000/svg">
<path d="M3.87837 3.87836C6.02033 1.7364 9.49313 1.7364 11.6351 3.87836L15.5135 7.75673L7.75673 15.5135L3.87837 11.6351C1.7364 9.49313 1.7364 6.02032 3.87837 3.87836Z" fill="#FFB2B2"/>
<path d="M27.283 3.87836C25.1411 1.7364 21.6683 1.7364 19.5263 3.87836L15.648 7.75673L23.4047 15.5135L27.283 11.6351C29.425 9.49313 29.425 6.02032 27.283 3.87836Z" fill="#87FAF3"/>
<path d="M4.03963 27.1218C1.89767 24.9798 1.89767 21.507 4.03963 19.365L7.918 15.4867L15.6747 23.2434L11.7964 27.1218C9.6544 29.2637 6.18159 29.2637 4.03963 27.1218Z" fill="#A5FFB9"/>
<path d="M27.2832 27.1218C29.4251 24.9798 29.4251 21.507 27.2832 19.365L23.4048 15.4867L15.6481 23.2434L19.5264 27.1218C21.6684 29.2637 25.1412 29.2637 27.2832 27.1218Z" fill="#CCBAFF"/>
<circle cx="15.5001" cy="15.5" r="4.5" fill="#FFF2AD"/>
</svg>
